<svg width="46" height="44" viewBox="0 0 46 44" fill="none" xmlns="http://www.w3.org/2000/svg">
<path d="M0.34473 39.434L5.51273 42.89C5.64051 42.9756 5.79091 43.0212 5.94473 43.021C5.99578 43.0213 6.04673 43.0163 6.09673 43.006C6.19774 42.9867 6.29394 42.9477 6.37977 42.891C6.46559 42.8344 6.53933 42.7613 6.59673 42.676L24.1277 16.466C28.7601 19.6169 33.1164 23.1557 37.1497 27.044C37.2111 27.1037 37.2906 27.1413 37.3757 27.151L39.1237 27.351H39.1677C39.2356 27.3511 39.3022 27.3333 39.3611 27.2996C39.4199 27.2658 39.4689 27.2172 39.5031 27.1586C39.5373 27.1 39.5555 27.0335 39.556 26.9657C39.5565 26.8978 39.5391 26.8311 39.5057 26.772C36.3376 21.0616 32.2628 15.9038 27.4407 11.5001L29.4227 8.53707C29.4795 8.45224 29.519 8.35706 29.5389 8.25697C29.5589 8.15688 29.5589 8.05384 29.539 7.95373C29.5192 7.85363 29.4798 7.75842 29.4231 7.67354C29.3664 7.58867 29.2936 7.51579 29.2087 7.45907L24.0417 4.00808C23.9574 3.94995 23.8621 3.90968 23.7617 3.88973C23.6613 3.86978 23.5578 3.87058 23.4577 3.89208C23.3576 3.91182 23.2623 3.95113 23.1773 4.00776C23.0924 4.06438 23.0195 4.13722 22.9627 4.22208L21.3187 6.67807C17.3776 3.99867 13.1498 1.76753 8.71373 0.0260868C8.63094 -0.00455213 8.54034 -0.00694426 8.45605 0.0192831C8.37176 0.0455105 8.29852 0.0988842 8.24773 0.171086L4.49973 5.76907C4.46679 5.81836 4.44555 5.87452 4.43763 5.93327C4.42971 5.99202 4.43533 6.0518 4.45404 6.10805C4.47276 6.1643 4.50409 6.21553 4.54563 6.25782C4.58717 6.30011 4.63783 6.33235 4.69373 6.35207C9.14509 7.95833 13.4455 9.95546 17.5447 12.3201L0.13073 38.357C0.0164368 38.5282 -0.0252219 38.7378 0.014902 38.9398C0.055026 39.1417 0.173652 39.3195 0.34473 39.434Z" fill="#00E7FF"/>
<path d="M26.9147 32.6631C26.7254 32.5493 26.5033 32.5025 26.2842 32.5303C26.0651 32.558 25.8617 32.6587 25.7067 32.8161L16.3527 42.3242C16.217 42.4625 16.1251 42.6378 16.0884 42.8281C16.0518 43.0184 16.0721 43.2153 16.1469 43.3941C16.2216 43.5729 16.3474 43.7257 16.5085 43.8333C16.6696 43.941 16.859 43.9987 17.0527 43.9993H44.8697C44.8807 43.9993 44.8967 43.9993 44.9077 43.9993C45.0371 43.9994 45.1653 43.974 45.2848 43.9246C45.4044 43.8751 45.513 43.8025 45.6045 43.7111C45.696 43.6196 45.7686 43.5109 45.818 43.3914C45.8675 43.2718 45.8929 43.1436 45.8927 43.0142C45.8935 42.8596 45.8572 42.707 45.7867 42.5692L43.6227 31.107C43.5931 30.9522 43.5268 30.8068 43.4292 30.6829C43.3317 30.559 43.2059 30.4604 43.0624 30.3952C42.9189 30.3301 42.7618 30.3003 42.6044 30.3084C42.4469 30.3166 42.2938 30.3624 42.1577 30.442L32.5697 36.0551L26.9147 32.6631Z" fill="#00E7FF"/>
</svg>
