<svg width="18" height="14" viewBox="0 0 18 14" fill="none" xmlns="http://www.w3.org/2000/svg">
<path d="M17.2189 1.66195C16.5742 1.94713 15.8906 2.13447 15.1907 2.21778C15.9282 1.77611 16.48 1.08141 16.7433 0.263089C16.0506 0.675315 15.2912 0.964211 14.5005 1.12048C13.9689 0.551629 13.2642 0.174362 12.496 0.0473339C11.7278 -0.0796944 10.9391 0.0506337 10.2526 0.418057C9.56616 0.78548 9.02029 1.36941 8.69991 2.07907C8.37953 2.78873 8.30258 3.58436 8.48103 4.34226C7.0762 4.27198 5.70186 3.907 4.44725 3.27104C3.19265 2.63507 2.08583 1.74234 1.19866 0.650818C0.884671 1.19013 0.719667 1.80321 0.72055 2.42727C0.72055 3.65212 1.3448 4.73422 2.29174 5.36776C1.73085 5.35007 1.18232 5.1986 0.691829 4.92597V4.96905C0.691804 5.78495 0.973996 6.57573 1.49054 7.20729C2.00709 7.83885 2.72619 8.27229 3.52588 8.43411C3.00523 8.57536 2.45924 8.59616 1.92935 8.49493C2.15483 9.19723 2.59433 9.81141 3.1863 10.2514C3.77827 10.6915 4.49305 10.9353 5.23053 10.9489C4.49761 11.5245 3.6584 11.95 2.7609 12.201C1.8634 12.4521 0.925216 12.5237 0 12.4119C1.61488 13.4504 3.49471 14.0017 5.41468 14C11.914 14 15.4669 8.61657 15.4669 3.94778C15.4669 3.79573 15.4635 3.64199 15.4568 3.49078C16.1481 2.99101 16.7448 2.37115 17.2189 1.66195Z" fill="white"/>
</svg>
